<svg xmlns="http://www.w3.org/2000/svg" version="1.1" xmlns:xlink="http://www.w3.org/1999/xlink" xmlns:svgjs="http://svgjs.dev/svgjs" width="1000" height="1000"><g clip-path="url(#SvgjsClipPath1021)"><rect width="1000" height="1000" fill="#ffffff"></rect><g transform="matrix(2.256532403418479,0,0,2.256532403418479,168.1581357277162,149.99999999999997)"><svg xmlns="http://www.w3.org/2000/svg" version="1.1" xmlns:xlink="http://www.w3.org/1999/xlink" xmlns:svgjs="http://svgjs.dev/svgjs" width="294.11664" height="310.21048"><svg version="1.1" id="Layer_1" x="0px" y="0px" width="294.11664" viewBox="0 0 294.11664 310.21048" enable-background="new 0 0 1024 1024" xml:space="preserve" height="310.21048" sodipodi:docname="logo.svg" inkscape:version="1.4 (e7c3feb1, 2024-10-09)" xmlns:inkscape="http://www.inkscape.org/namespaces/inkscape" xmlns:sodipodi="http://sodipodi.sourceforge.net/DTD/sodipodi-0.dtd" xmlns="http://www.w3.org/2000/svg" xmlns:svg="http://www.w3.org/2000/svg"><sodipodi:namedview id="namedview1" pagecolor="#505050" bordercolor="#eeeeee" borderopacity="1" inkscape:showpageshadow="false" inkscape:pageopacity="0" inkscape:pagecheckerboard="true" inkscape:deskcolor="#505050" showborder="true" inkscape:zoom="4.9567406" inkscape:cx="254.1993" inkscape:cy="323.19626" inkscape:window-width="1440" inkscape:window-height="847" inkscape:window-x="0" inkscape:window-y="25" inkscape:window-maximized="0" inkscape:current-layer="g1" inkscape:clip-to-page="false"></sodipodi:namedview><defs id="defs2"><inkscape:path-effect effect="fillet_chamfer" id="path-effect4" is_visible="true" lpeversion="1" nodesatellites_param="F,0,0,1,0,0,0,1 @ F,0,0,1,0,0,0,1 @ F,0,0,1,0,0,0,1 @ F,0,0,1,0,0,0,1 @ F,0,0,1,0,0,0,1 @ F,0,0,1,0,0,0,1" radius="0" unit="px" method="auto" mode="F" chamfer_steps="1" flexible="false" use_knot_distance="true" apply_no_radius="true" apply_with_radius="true" only_selected="false" hide_knots="false"></inkscape:path-effect><inkscape:path-effect effect="fillet_chamfer" id="path-effect3" is_visible="true" lpeversion="1" nodesatellites_param="F,0,0,1,0,0,0,1 @ F,0,0,1,0,0,0,1 @ F,0,0,1,0,0,0,1 @ F,0,0,1,0,0,0,1 @ F,0,0,1,0,0,0,1 @ F,0,0,1,0,0,0,1" radius="0" unit="px" method="auto" mode="F" chamfer_steps="1" flexible="false" use_knot_distance="true" apply_no_radius="true" apply_with_radius="true" only_selected="false" hide_knots="false"></inkscape:path-effect><inkscape:path-effect effect="fillet_chamfer" id="path-effect2" is_visible="true" lpeversion="1" nodesatellites_param="F,0,0,1,0,0,0,1 @ F,0,0,1,0,0,0,1 @ F,0,0,1,0,0,0,1 @ F,0,0,1,0,0,0,1 @ F,0,0,1,0,0,0,1 @ F,0,0,1,0,0,0,1" radius="0" unit="px" method="auto" mode="F" chamfer_steps="1" flexible="false" use_knot_distance="true" apply_no_radius="true" apply_with_radius="true" only_selected="false" hide_knots="false"></inkscape:path-effect><inkscape:path-effect effect="fillet_chamfer" id="path-effect1" is_visible="true" lpeversion="1" nodesatellites_param="F,0,0,1,0,0,0,1 @ F,0,0,1,0,0,0,1 @ F,0,0,1,0,0,0,1 @ F,0,0,1,0,0,0,1 @ F,0,0,1,0,0,0,1 @ F,0,0,1,0,0,0,1" radius="0" unit="px" method="auto" mode="F" chamfer_steps="1" flexible="false" use_knot_distance="true" apply_no_radius="true" apply_with_radius="true" only_selected="false" hide_knots="false"></inkscape:path-effect><clipPath id="SvgjsClipPath1021"><rect width="1000" height="1000" x="0" y="0" rx="350" ry="350"></rect></clipPath></defs>
  <!-- Unchanged 'db' shape path -->
  <path fill="#000000" opacity="1" stroke="none" d="m 288.24706,128.2573 c 16.53125,48.11551 -11.69086,97.35648 -61.36225,105.84457 -30.25555,5.17023 -55.25525,-5.84484 -74.80493,-29.34545 -1.78955,-2.15125 -3.42065,-4.43433 -5.63238,-7.31702 -16.96424,24.72906 -39.82575,38.30347 -69.529665,37.8869 -19.24789,-0.2699 -36.39703,-7.24707 -50.83828,-20.35773 C -2.8347249,188.71839 -8.3202949,145.5713 12.706165,112.49048 30.538535,84.434885 75.414785,60.517555 122.84658,89.035295 c 1.32003,-1.59601 0.67736,-3.49433 0.68078,-5.21268 0.0516,-25.8309 0.14117,-51.66275 -0.0536,-77.4922503 -0.036,-4.76825 1.38208,-6.60714998 6.2247,-6.29479998 5.14456,0.33185 10.34275,0.31335 15.4892,-0.007 4.67319,-0.29074 6.10092,1.63067998 6.06357,6.09738998 -0.15473,18.4970303 -0.0716,36.9960903 -0.0687,55.4944103 0.002,12.83215 -0.007,25.66437 0.0532,38.496305 0.007,1.58542 -0.52014,3.29889 0.74884,5.04141 4.29602,-4.00641 8.20392,-8.345455 12.77832,-11.802485 26.77131,-20.23233 55.41626,-22.3063 85.53071,-8.20142 2.12341,0.99454 4.12451,1.91947 6.59063,1.98154 3.74249,0.0942 6.27338,-0.616 5.74927,-5.15323 -0.36273,-3.14041 1.46637,-3.98569 4.2746,-3.95346 6.83178,0.0785 13.66644,0.0997 20.49707,-0.0206 2.9032,-0.0511 4.37921,1.02387 4.41186,3.99201 0.0769,6.99777 0.15241,13.98895 -0.4436,20.978385 -0.21546,2.52655 -1.35785,3.5712 -3.77411,3.55478 -3.42981,-0.0233 -6.85986,-0.006 -11.51129,-0.006 5.26983,7.38888 9.15875,14.10947 12.15912,21.72943 m -178.2728,-13.46131 c -18.093835,-12.43216 -37.260825,-14.5433 -56.357655,-3.4794 -19.5506,11.32681 -27.92341,29.12747 -25.37427,51.75131 2.52023,22.36792 22.00204,41.47718 44.66376,43.92151 23.25186,2.508 44.765615,-10.24267 53.550065,-31.73791 8.88706,-21.74631 2.61515,-45.40769 -16.4819,-60.45551 m 129.48987,85.67005 c 16.67517,-9.91486 25.54004,-24.84742 25.93829,-43.95575 0.63086,-30.26889 -25.37536,-53.5185 -54.30877,-52.11923 -30.01557,1.45159 -53.60639,31.00851 -47.36896,60.46853 7.53424,35.58472 42.51813,52.34076 75.73944,35.60645 z" id="path1"></path>

  <!-- Sharpened “smile” path -->
  
<g id="g1" transform="translate(2.7323569e-6,1.6377356e-4)"><path d="m 220.8864,309.86722 c -35.37396,3.2415 -75.63345,-21.49634 -86.70758,-59.30793 -1.11978,-3.8233 -1.23593,-6.59332 1.85428,-9.79724 8.22009,-8.52252 7.94809,-8.5227 18.49069,-3.42419 4.03162,1.94959 6.45801,4.32788 7.77411,8.80902 5.95135,20.26257 30.84985,37.50607 55.14844,36.0379 24.29859,-1.46817 38.81402,24.44094 3.44006,27.68244 z" id="path2" sodipodi:nodetypes="zsscczz" style="color:#000000;font-style:normal;font-variant:normal;font-weight:normal;font-stretch:normal;font-size:medium;line-height:normal;font-family:sans-serif;font-variant-ligatures:normal;font-variant-position:normal;font-variant-caps:normal;font-variant-numeric:normal;font-variant-alternates:normal;font-variant-east-asian:normal;font-feature-settings:normal;font-variation-settings:normal;text-indent:0;text-align:start;text-decoration-line:none;text-decoration-style:solid;text-decoration-color:#000000;letter-spacing:normal;word-spacing:normal;text-transform:none;writing-mode:lr-tb;direction:ltr;text-orientation:mixed;dominant-baseline:auto;baseline-shift:baseline;text-anchor:start;white-space:normal;shape-padding:0;shape-margin:0;inline-size:0;clip-rule:nonzero;display:inline;overflow:visible;visibility:visible;isolation:auto;mix-blend-mode:normal;color-interpolation:sRGB;color-interpolation-filters:linearRGB;solid-color:#000000;solid-opacity:1;vector-effect:none;fill:#000000;fill-opacity:1;fill-rule:nonzero;stroke:none;stroke-linecap:butt;stroke-linejoin:miter;stroke-miterlimit:4;stroke-dasharray:none;stroke-dashoffset:0;stroke-opacity:1;-inkscape-stroke:none;color-rendering:auto;image-rendering:auto;shape-rendering:auto;text-rendering:auto;enable-background:accumulate;stop-color:#000000;stop-opacity:1"></path><path d="m 206.68753,309.92571 c 35.37396,3.2415 75.63345,-21.49634 86.70758,-59.30793 1.11978,-3.8233 1.23593,-6.59332 -1.85428,-9.79724 -8.22009,-8.52252 -7.94809,-8.5227 -18.49069,-3.42419 -4.03162,1.94959 -6.45801,4.32788 -7.77411,8.80902 -5.95135,20.26257 -30.84985,37.50607 -55.14844,36.0379 -24.29859,-1.46817 -38.81402,24.44094 -3.44006,27.68244 z" id="path2-2" sodipodi:nodetypes="zsscczz" style="color:#000000;font-style:normal;font-variant:normal;font-weight:normal;font-stretch:normal;font-size:medium;line-height:normal;font-family:sans-serif;font-variant-ligatures:normal;font-variant-position:normal;font-variant-caps:normal;font-variant-numeric:normal;font-variant-alternates:normal;font-variant-east-asian:normal;font-feature-settings:normal;font-variation-settings:normal;text-indent:0;text-align:start;text-decoration-line:none;text-decoration-style:solid;text-decoration-color:#000000;letter-spacing:normal;word-spacing:normal;text-transform:none;writing-mode:lr-tb;direction:ltr;text-orientation:mixed;dominant-baseline:auto;baseline-shift:baseline;text-anchor:start;white-space:normal;shape-padding:0;shape-margin:0;inline-size:0;clip-rule:nonzero;display:inline;overflow:visible;visibility:visible;isolation:auto;mix-blend-mode:normal;color-interpolation:sRGB;color-interpolation-filters:linearRGB;solid-color:#000000;solid-opacity:1;vector-effect:none;fill:#000000;fill-opacity:1;fill-rule:nonzero;stroke:none;stroke-linecap:butt;stroke-linejoin:miter;stroke-miterlimit:4;stroke-dasharray:none;stroke-dashoffset:0;stroke-opacity:1;-inkscape-stroke:none;color-rendering:auto;image-rendering:auto;shape-rendering:auto;text-rendering:auto;enable-background:accumulate;stop-color:#000000;stop-opacity:1"></path></g></svg></svg></g></g></svg>